<?xml version="1.0" encoding="utf-8"?>
<!-- Generator: Adobe Illustrator 22.1.0, SVG Export Plug-In . SVG Version: 6.00 Build 0)  -->
<svg version="1.1" xmlns="http://www.w3.org/2000/svg" xmlns:xlink="http://www.w3.org/1999/xlink" x="0px" y="0px"
	 viewBox="0 0 1366 768" style="enable-background:new 0 0 1366 768;" xml:space="preserve">
<style type="text/css">
	.st0{fill:url(#SVGID_1_);}
	.st1{display:none;fill:url(#SVGID_2_);stroke:#000000;stroke-miterlimit:10;}
	.st2{display:none;fill:url(#SVGID_3_);stroke:#000000;stroke-miterlimit:10;}
	.st3{display:none;fill:url(#SVGID_4_);stroke:#000000;stroke-miterlimit:10;}
	.st4{display:none;fill:url(#SVGID_5_);stroke:#000000;stroke-miterlimit:10;}
	.st5{display:none;fill:url(#SVGID_6_);stroke:#000000;stroke-miterlimit:10;}
	.st6{opacity:0.18;}
	.st7{fill:#CCCCCC;}
	.st8{fill:#F2F2F2;stroke:#000000;stroke-miterlimit:10;}
	.st9{opacity:0.1;}
	.st10{opacity:8.000000e-02;}
	.st11{fill:#E6E6E6;}
	.st12{fill:#FFFFFF;}
	.st13{fill:url(#SVGID_7_);}
	.st14{fill:url(#SVGID_8_);}
	.st15{fill:url(#SVGID_9_);}
	.st16{fill:#E0E8ED;stroke:#000000;stroke-miterlimit:10;}
</style>
<g id="Layer_1">
	<linearGradient id="SVGID_1_" gradientUnits="userSpaceOnUse" x1="0" y1="325.8994" x2="1365" y2="325.8994">
		<stop  offset="0" style="stop-color:#58CAFF"/>
		<stop  offset="0.6591" style="stop-color:#6B63FF"/>
		<stop  offset="1" style="stop-color:#7433FF"/>
	</linearGradient>
	<path class="st0" d="M0,0h1365v634c-41.6,9.7-106.6,20.9-186,17c-59.6-2.9-76.6-11.9-168-24c-50.4-6.7-84.6-11.8-132-14.4
		c-10.4-0.6-45.2-2.3-85-1.6c-108.2,2-120.2,21.8-228,27c-93.8,4.5-167.1-1.9-188.9-4c-86.6-8.2-95.8-17.3-153.1-22
		c-52.1-4.3-128.3-3.7-224,22C0,422.7,0,211.3,0,0z"/>
	<linearGradient id="SVGID_2_" gradientUnits="userSpaceOnUse" x1="437.5" y1="701.5" x2="437.5" y2="701.5">
		<stop  offset="0" style="stop-color:#58CAFF"/>
		<stop  offset="0.429" style="stop-color:#6196E3"/>
		<stop  offset="1" style="stop-color:#6D55C0"/>
	</linearGradient>
	<path class="st1" d="M437.5,701.5"/>
	<linearGradient id="SVGID_3_" gradientUnits="userSpaceOnUse" x1="576.5" y1="658.5" x2="576.5" y2="658.5">
		<stop  offset="0" style="stop-color:#58CAFF"/>
		<stop  offset="0.429" style="stop-color:#6196E3"/>
		<stop  offset="1" style="stop-color:#6D55C0"/>
	</linearGradient>
	<path class="st2" d="M576.5,658.5"/>
	<linearGradient id="SVGID_4_" gradientUnits="userSpaceOnUse" x1="959.5" y1="603.5" x2="959.5" y2="603.5">
		<stop  offset="0" style="stop-color:#58CAFF"/>
		<stop  offset="0.429" style="stop-color:#6196E3"/>
		<stop  offset="1" style="stop-color:#6D55C0"/>
	</linearGradient>
	<path class="st3" d="M959.5,603.5"/>
	<linearGradient id="SVGID_5_" gradientUnits="userSpaceOnUse" x1="1246.5" y1="701.5" x2="1246.5" y2="701.5">
		<stop  offset="0" style="stop-color:#58CAFF"/>
		<stop  offset="0.429" style="stop-color:#6196E3"/>
		<stop  offset="1" style="stop-color:#6D55C0"/>
	</linearGradient>
	<path class="st4" d="M1246.5,701.5"/>
	<linearGradient id="SVGID_6_" gradientUnits="userSpaceOnUse" x1="1121.5" y1="550.5" x2="1121.5" y2="550.5">
		<stop  offset="0" style="stop-color:#58CAFF"/>
		<stop  offset="0.429" style="stop-color:#6196E3"/>
		<stop  offset="1" style="stop-color:#6D55C0"/>
	</linearGradient>
	<path class="st5" d="M1121.5,550.5"/>
	<g class="st6">
		<path class="st7" d="M-19.2,641.2L1383,666.6l0.7-91.1c-90.6-43.4-159.5-45.4-205.8-39c-74.7,10.2-126.9,46.9-233,43.1
			c-21.6-0.8-42.3-1-69.1-8.2c-77.3-20.7-104.7-72.5-219.2-60c-71.8,7.8-98.3,34.2-148.8,46.3c-2.7,0.6-34.6,5.4-63.8,6
			c-133.8,2.9-193-84.5-292.4-85.5C112.7,477.8,54,490.6-19,560.6C-19,587.5-19.1,614.3-19.2,641.2z"/>
	</g>
	<path class="st8" d="M1405.5,596.5"/>
	<g class="st9">
		<path class="st7" d="M1365.3,657L-258,671.5l-0.1-93c105.2-43.5,184.9-45,238.5-38.2c86.3,11,146.5,48.9,269.4,45.9
			c25-0.6,49-0.7,80.1-7.8c89.7-20.5,121.8-73.1,254.1-59.4c83.1,8.6,113.6,35.7,171.9,48.5c3.1,0.7,40,5.8,73.8,6.6
			c154.8,4.1,224.1-84.6,339.1-84.8c45.1-0.1,112.9,13.4,196.8,85.5C1365.5,602.2,1365.4,629.6,1365.3,657z"/>
	</g>
	<g class="st10">
		<path class="st11" d="M1413.6,708L-143,729l0-118.2c101-55.5,177.4-57.5,228.8-48.9c82.8,13.9,140.4,61.9,258.3,57.9
			c24-0.8,46.9-1,76.8-10.1c86-26.2,116.9-93.2,243.8-76c79.7,10.8,108.9,45.3,164.7,61.4c3,0.9,38.4,7.3,70.8,8.3
			c148.5,5,215-108,325.3-108.4c43.2-0.2,108.3,16.9,188.6,108.4C1414,638.3,1413.8,673.1,1413.6,708z"/>
	</g>
	<path class="st12" d="M0,1257h1365V613.8c14.9-12.3,31.8-27.5,29-32.5c-4.7-8.2-56.3,24.6-122,41.6c-71.9,18.5-150.9,7.2-306-16.2
		c-63.9-9.7-49.7-9.7-74-12.2c-130-13.1-175.6,25.4-332,28.4c-20.6,0.4-61.3,1.1-114.6-4.1c-81.4-7.9-123-24.1-201.4-29.4
		c-16-1.1-67.5-4-134,3.6c-44.5,5.1-81.9,13.3-110,20.8C0,828.2,0,1042.6,0,1257z"/>
	<linearGradient id="SVGID_7_" gradientUnits="userSpaceOnUse" x1="400" y1="919" x2="400" y2="919">
		<stop  offset="0" style="stop-color:#58CAFF"/>
		<stop  offset="0.6591" style="stop-color:#6B63FF"/>
		<stop  offset="1" style="stop-color:#7433FF"/>
	</linearGradient>
	<path class="st13" d="M400,919"/>
	<linearGradient id="SVGID_8_" gradientUnits="userSpaceOnUse" x1="956" y1="901" x2="956" y2="901">
		<stop  offset="0" style="stop-color:#58CAFF"/>
		<stop  offset="0.6591" style="stop-color:#6B63FF"/>
		<stop  offset="1" style="stop-color:#7433FF"/>
	</linearGradient>
	<path class="st14" d="M956,901"/>
	<linearGradient id="SVGID_9_" gradientUnits="userSpaceOnUse" x1="964" y1="751" x2="964" y2="751">
		<stop  offset="0" style="stop-color:#58CAFF"/>
		<stop  offset="0.6591" style="stop-color:#6B63FF"/>
		<stop  offset="1" style="stop-color:#7433FF"/>
	</linearGradient>
	<path class="st15" d="M964,751"/>
	<path class="st12" d="M900,1011"/>
	<path class="st12" d="M1016,1095c-16.7,0.7-33.3,1.3-50,2"/>
	<path class="st11" d="M236,1039"/>
	<path class="st12" d="M368,1131c-136.2-57.2-272.4-114.5-408.6-171.7c-1.8-0.8-3.6-1.5-5.4-2.3"/>
</g>
<g id="new">
	<path class="st16" d="M1437.5,706.5"/>
	<path class="st16" d="M1311.5,750.5"/>
</g>
</svg>
