<?xml version="1.0" encoding="utf-8"?>
<!-- Generator: Adobe Illustrator 22.1.0, SVG Export Plug-In . SVG Version: 6.00 Build 0)  -->
<svg version="1.1" id="Layer_1" xmlns="http://www.w3.org/2000/svg" xmlns:xlink="http://www.w3.org/1999/xlink" x="0px" y="0px"
	 viewBox="0 0 1366 2000" style="enable-background:new 0 0 1366 2000;" xml:space="preserve">
<style type="text/css">
	.st0{fill:url(#SVGID_1_);}
	.st1{fill:url(#SVGID_2_);}
	.st2{fill:url(#SVGID_3_);}
	.st3{fill:url(#SVGID_4_);}
	.st4{fill:url(#SVGID_5_);}
	.st5{opacity:0.22;fill:#E6E6E6;}
	.st6{fill:#E6E6E6;}
	.st7{fill:none;}
	.st8{opacity:0.25;fill:#E6E6E6;}
	.st9{opacity:0.17;fill:#CCCCCC;}
	.st10{fill:#CCCCCC;}
	.st11{fill:#F2F2F2;}
</style>
<linearGradient id="SVGID_1_" gradientUnits="userSpaceOnUse" x1="-1" y1="937.5596" x2="1368" y2="937.5596">
	<stop  offset="0" style="stop-color:#08CFFF"/>
	<stop  offset="1" style="stop-color:#573CFF"/>
</linearGradient>
<path class="st0" d="M1368,1801c-175.3-25-429,10.8-683.1,40.7c-75.8,8.9-207.2,35.2-388.2,32.7c-126.2-1.8-229.5-15.5-297.7-27
	c0-5.8,0-11.6,0-17.4c0-14.7,0-29.3,0-44c0-7.3,0-14.7,0-22c0-14.7,0-29.3,0-44c0-0.6,0-57.3,0-58C-1,1568.3-0.5,109.6-0.5,0.5
	c456,0,912,0,1368,0L1368,1801z"/>
<linearGradient id="SVGID_2_" gradientUnits="userSpaceOnUse" x1="214" y1="1721" x2="214" y2="1721">
	<stop  offset="0" style="stop-color:#08CFFF"/>
	<stop  offset="1" style="stop-color:#7C2DAE"/>
</linearGradient>
<path class="st1" d="M214,1721"/>
<linearGradient id="SVGID_3_" gradientUnits="userSpaceOnUse" x1="682" y1="1747" x2="682" y2="1747">
	<stop  offset="0" style="stop-color:#08CFFF"/>
	<stop  offset="1" style="stop-color:#7C2DAE"/>
</linearGradient>
<path class="st2" d="M682,1747"/>
<linearGradient id="SVGID_4_" gradientUnits="userSpaceOnUse" x1="332" y1="1721" x2="332" y2="1721">
	<stop  offset="0" style="stop-color:#08CFFF"/>
	<stop  offset="1" style="stop-color:#573CFF"/>
</linearGradient>
<path class="st3" d="M332,1721"/>
<linearGradient id="SVGID_5_" gradientUnits="userSpaceOnUse" x1="0" y1="1807" x2="0" y2="1807">
	<stop  offset="0" style="stop-color:#08CFFF"/>
	<stop  offset="1" style="stop-color:#573CFF"/>
</linearGradient>
<path class="st4" d="M0,1807"/>
<path class="st5" d="M-262.9,1829.7c6.6-4.5,15.8-9.1,25.5-8.3c17.9,1.5,21.9,20.3,31.1,27.3c47,35.6,330.7-160,546-125.7
	c45.4,7.2,123.7,30.5,264.1,40.1c17.4,1.2,26.8,1.8,39.8,2.2c171.3,5.3,216.3-55,347.4-57.1c103.4-1.7,112.9,35.2,277,40.6
	c63.6,2.1,79.3-12.6,95.7-0.8c18.5,13.3,29.7,51.1-0.7,157.7L-262.9,1829.7z"/>
<line class="st6" x1="554" y1="1947" x2="94" y2="1947"/>
<line class="st6" x1="0" y1="1915" x2="536" y2="1915"/>
<line class="st7" x1="0" y1="1569" x2="70.7" y2="1498.3"/>
<path class="st8" d="M-274.1,1850.7c137.8-64.1,245.9-71,321.5-64c77.2,7.1,152.7,31.7,304.6,39.3c45.2,2.3,82.6,2.3,108,2
	c311.4-84.6,433.9-87.2,478.9-64.8c6.3,3.1,39.8,17.3,86.4,29.9c20.8,5.6,48.2,8.6,92.6,4.8c74.8-6.4,110.6-24.5,188-29.4
	c74.4-4.7,156,4.9,138,38.4c-20.4,37.9-160.8,92.1-203.3,108.6c-524.1,202.4-1815.9,224.4-1636.1,16.8
	C-369,1901.6-314.9,1871.2-274.1,1850.7z"/>
<path class="st6" d="M884,1903c40.7-7.3,81.3-14.7,122-22"/>
<path class="st6" d="M517,2128c28.3,29.7,56.7,59.3,85,89"/>
<path class="st9" d="M-410,1844c51.4-38.5,129.8-84.8,230-95c146.8-15,178.8,64,342,75c223.2,15,273.7-125.2,434-70
	c59,20.3,126.2,64.8,235,58c17.2-1.1,32.5-3.2,77-13c214.9-47.2,256.5-84.4,326-78c52.4,4.8,126.2,35,209,157"/>
<path class="st10" d="M-1,1847"/>
<polygon class="st10" points="0,2451 542,2451 1368,2451 1368,2677 -1,2677 "/>
<path class="st11" d="M-1207.8,1720.6c90,108.6,322.7,342.6,826.5,489.9c766.1,224,1863,161.1,2593.2-199
	c-636.8-241.9-1022.6-270.4-1259.2-249.5c-170.6,15.1-192.4,49.5-451.6,67.2c-265.4,18.1-460.2-3.2-783.3,37.8
	c-58.1,7.4-104.6,14.7-134.6,19.8"/>
</svg>
